<?xml version="1.0" encoding="UTF-8"?>
<svg id="Layer_1" data-name="Layer 1" xmlns="http://www.w3.org/2000/svg" viewBox="0 0 646.29 134.38">
  <defs>
    <style>
      .cls-1 {
        fill: #fff;
      }

      .cls-2 {
        fill: red;
      }

      .cls-3 {
        fill: #0090e2;
      }
    </style>
  </defs>
  <g>
    <path class="cls-1" d="M174.89,45.47h-31.24v84.92h31.24c23.45,0,42.46-19.01,42.46-42.46s-19.01-42.46-42.46-42.46ZM173.56,107.36h-5.27v-38.84h5.27c10.73,0,19.42,8.7,19.42,19.42s-8.7,19.42-19.42,19.42ZM365,130.4v-34.59c0-3.15-2.56-5.71-5.71-5.71s-5.71,2.56-5.71,5.71v34.59h-24.26v-34.59c0-3.15-2.56-5.71-5.71-5.71s-5.71,2.56-5.71,5.71v34.59h-24.26v-61.88h14.99l6.46,6.46c3.96-5.17,10.08-8.23,16.59-8.29.07,0,.14,0,.21,0,6.31,0,12.29,2.81,16.31,7.68,4.48-4.9,10.81-7.67,17.42-7.67,12.96,0,23.48,10.46,23.58,23.41l.04,40.3h-24.26ZM287.5,99.45c0,18.09-14.66,32.75-32.75,32.75s-32.75-14.66-32.75-32.75,14.66-32.75,32.75-32.75,32.75,14.66,32.75,32.75ZM265.8,99.46c0-2.83-1.08-5.66-3.23-7.81-2.16-2.15-5-3.23-7.83-3.23s-5.66,1.08-7.81,3.23c-2.16,2.16-3.23,5-3.23,7.83s1.08,5.66,3.23,7.81c2.16,2.15,4.99,3.23,7.82,3.23s5.66-1.08,7.81-3.23c2.15-2.16,3.23-5,3.23-7.83ZM397.28,130.4h24.26v-61.88h-24.26v61.88ZM641.86,111.89c0-4.76-1.88-9.09-5.89-12.44-7.98-6.07-20.31-7.07-23.99-8.48-2.37-.91-3.39-2.32-3.39-3.61,0-1.65,1.65-3.12,4.21-3.12,3.94,0,5.18,2.16,6.35,5.54l21.59-2.82c-3.29-11.79-13.04-20.26-28.25-20.26s-27.64,8.39-27.64,20.29c0,4.76,1.88,9.09,5.89,12.44,7.98,6.07,20.31,7.07,23.99,8.48,2.37.91,3.39,2.32,3.39,3.61,0,1.65-1.65,3.12-4.21,3.12-3.98,0-5.88-2.35-7.27-5.42l-22.86,2.68c3.29,11.79,15.22,20.27,30.43,20.27s27.64-8.39,27.64-20.29ZM565.31,99.45c0,18.09-14.66,32.75-32.75,32.75s-32.75-14.66-32.75-32.75,14.66-32.75,32.75-32.75,32.75,14.66,32.75,32.75ZM543.61,99.46c0-2.83-1.08-5.66-3.23-7.81-2.16-2.15-5-3.23-7.83-3.23s-5.66,1.08-7.81,3.23c-2.16,2.16-3.23,5-3.23,7.83s1.08,5.66,3.23,7.81c2.16,2.15,4.99,3.23,7.82,3.23s5.66-1.08,7.81-3.23c2.15-2.16,3.23-5,3.23-7.83ZM409.42,38.97c-3.25,0-6.5,1.24-8.98,3.72-2.48,2.47-3.72,5.72-3.72,8.97s1.24,6.5,3.72,8.98c2.47,2.48,5.72,3.72,8.97,3.72s6.5-1.24,8.98-3.72c2.48-2.47,3.72-5.72,3.72-8.97s-1.24-6.5-3.72-8.98c-2.47-2.48-5.72-3.72-8.97-3.72ZM493.99,90.1c-.47-12.8-10.79-23.03-23.6-23.4-.23,0-.47-.01-.7-.01-6.99,0-13.67,3.02-18.29,8.29l-6.46-6.46h-14.99v61.88h24.26v-33.11c0-4.29,3.48-7.76,7.76-7.76s7.76,3.48,7.76,7.76v33.11h24.26v-40.3h0ZM571.95,85.21c7.83-4.52,12.13-12.28,12.13-18.21,0-6.45-5.23-11.69-11.69-11.69s-11.7,5.26-11.7,11.69,5.24,11.7,11.7,11.7c.37,0,.73-.02,1.09-.05-.34,2.05-1.21,3.96-2.54,5.56l1.01,1.01Z"/>
    <path class="cls-1" d="M174.89,45.47h-31.24v84.92h31.24c23.45,0,42.46-19.01,42.46-42.46s-19.01-42.46-42.46-42.46ZM173.56,107.36h-5.27v-38.84h5.27c10.73,0,19.42,8.7,19.42,19.42s-8.7,19.42-19.42,19.42ZM365,130.4v-34.59c0-3.15-2.56-5.71-5.71-5.71s-5.71,2.56-5.71,5.71v34.59h-24.26v-34.59c0-3.15-2.56-5.71-5.71-5.71s-5.71,2.56-5.71,5.71v34.59h-24.26v-61.88h14.99l6.46,6.46c3.96-5.17,10.08-8.23,16.59-8.29.07,0,.14,0,.21,0,6.31,0,12.29,2.81,16.31,7.68,4.48-4.9,10.81-7.67,17.42-7.67,12.96,0,23.48,10.46,23.58,23.41l.04,40.3h-24.26ZM287.5,99.45c0,18.09-14.66,32.75-32.75,32.75s-32.75-14.66-32.75-32.75,14.66-32.75,32.75-32.75,32.75,14.66,32.75,32.75ZM265.8,99.46c0-2.83-1.08-5.66-3.23-7.81-2.16-2.15-5-3.23-7.83-3.23s-5.66,1.08-7.81,3.23c-2.16,2.16-3.23,5-3.23,7.83s1.08,5.66,3.23,7.81c2.16,2.15,4.99,3.23,7.82,3.23s5.66-1.08,7.81-3.23c2.15-2.16,3.23-5,3.23-7.83ZM397.28,130.4h24.26v-61.88h-24.26v61.88ZM641.86,111.89c0-4.76-1.88-9.09-5.89-12.44-7.98-6.07-20.31-7.07-23.99-8.48-2.37-.91-3.39-2.32-3.39-3.61,0-1.65,1.65-3.12,4.21-3.12,3.94,0,5.18,2.16,6.35,5.54l21.59-2.82c-3.29-11.79-13.04-20.26-28.25-20.26s-27.64,8.39-27.64,20.29c0,4.76,1.88,9.09,5.89,12.44,7.98,6.07,20.31,7.07,23.99,8.48,2.37.91,3.39,2.32,3.39,3.61,0,1.65-1.65,3.12-4.21,3.12-3.98,0-5.88-2.35-7.27-5.42l-22.86,2.68c3.29,11.79,15.22,20.27,30.43,20.27s27.64-8.39,27.64-20.29ZM565.31,99.45c0,18.09-14.66,32.75-32.75,32.75s-32.75-14.66-32.75-32.75,14.66-32.75,32.75-32.75,32.75,14.66,32.75,32.75ZM543.61,99.46c0-2.83-1.08-5.66-3.23-7.81-2.16-2.15-5-3.23-7.83-3.23s-5.66,1.08-7.81,3.23c-2.16,2.16-3.23,5-3.23,7.83s1.08,5.66,3.23,7.81c2.16,2.15,4.99,3.23,7.82,3.23s5.66-1.08,7.81-3.23c2.15-2.16,3.23-5,3.23-7.83ZM409.42,38.97c-3.25,0-6.5,1.24-8.98,3.72-2.48,2.47-3.72,5.72-3.72,8.97s1.24,6.5,3.72,8.98c2.47,2.48,5.72,3.72,8.97,3.72s6.5-1.24,8.98-3.72c2.48-2.47,3.72-5.72,3.72-8.97s-1.24-6.5-3.72-8.98c-2.47-2.48-5.72-3.72-8.97-3.72ZM493.99,90.1c-.47-12.8-10.79-23.03-23.6-23.4-.23,0-.47-.01-.7-.01-6.99,0-13.67,3.02-18.29,8.29l-6.46-6.46h-14.99v61.88h24.26v-33.11c0-4.29,3.48-7.76,7.76-7.76s7.76,3.48,7.76,7.76v33.11h24.26v-40.3h0ZM571.95,85.21c7.83-4.52,12.13-12.28,12.13-18.21,0-6.45-5.23-11.69-11.69-11.69s-11.7,5.26-11.7,11.69,5.24,11.7,11.7,11.7c.37,0,.73-.02,1.09-.05-.34,2.05-1.21,3.96-2.54,5.56l1.01,1.01Z"/>
  </g>
  <g>
    <path class="cls-1" d="M84.08,2.39l-39.56,39.56-2.57,2.57L2.39,84.08c-3.18,3.18-3.18,8.36,0,11.55l36.36,36.36c3.18,3.18,8.36,3.18,11.55,0l39.56-39.56,2.57-2.57,39.56-39.56c3.18-3.18,3.18-8.36,0-11.55L95.63,2.39c-3.18-3.18-8.36-3.18-11.55,0Z"/>
    <path class="cls-2" d="M86.65,4.95l-39.56,39.56,42.77,42.77,39.56-39.56c1.77-1.77,1.77-4.64,0-6.42L93.06,4.95c-1.77-1.77-4.64-1.77-6.42,0ZM100.43,44.52c0,2.92-1.19,5.57-3.1,7.47-1.92,1.92-4.55,3.1-7.47,3.1-2.92,0-5.57-1.2-7.47-3.1-1.92-1.92-3.1-4.55-3.1-7.47,0-2.92,1.19-5.55,3.09-7.47,1.92-1.92,4.55-3.1,7.48-3.1s5.55,1.19,7.47,3.1c1.9,1.9,3.1,4.55,3.1,7.47Z"/>
    <path class="cls-3" d="M4.95,86.65c-1.77,1.77-1.77,4.64,0,6.42l36.36,36.36c1.77,1.77,4.64,1.77,6.42,0l39.56-39.56-42.77-42.77L4.95,86.65ZM40.12,89.86c0,2.92-1.19,5.57-3.1,7.47-1.92,1.92-4.55,3.1-7.47,3.1-2.92,0-5.57-1.2-7.47-3.1s-3.1-4.55-3.1-7.47c0-2.92,1.19-5.55,3.09-7.47,1.92-1.92,4.55-3.1,7.48-3.1,2.92,0,5.55,1.19,7.47,3.1,1.9,1.9,3.1,4.55,3.1,7.47ZM70.07,89.84c0,2.92-1.19,5.57-3.1,7.47-1.92,1.92-4.55,3.1-7.47,3.1-2.92,0-5.57-1.2-7.47-3.1s-3.1-4.55-3.1-7.47c0-2.92,1.19-5.55,3.09-7.47,1.92-1.92,4.55-3.1,7.48-3.1,2.92,0,5.55,1.19,7.47,3.1,1.9,1.9,3.1,4.55,3.1,7.47Z"/>
  </g>
  <path class="cls-1" d="M635.16,66.74c0,3.23,2.56,5.58,5.58,5.58s5.55-2.36,5.55-5.58-2.56-5.55-5.55-5.55-5.58,2.36-5.58,5.55M640.74,71.43c-2.55,0-4.52-1.97-4.52-4.68s1.97-4.65,4.52-4.65,4.49,2,4.49,4.65-1.97,4.68-4.49,4.68ZM643.27,65.38c0-1.26-.74-1.83-2.25-1.83h-2.43v6.42h.98v-2.79h1.09l1.69,2.79h1.07l-1.81-2.82c.95-.12,1.66-.62,1.66-1.77ZM639.57,66.37v-2.01h1.32c1.11,0,1.41.35,1.41.96,0,.71-.39,1.05-1.57,1.05h-1.15Z"/>
</svg>